# xmcd
#
# Track frame offsets: 
#        150
#        16894
#        27402
#        44718
#        66446
#        94939
#        116330
#        133446
#        154285
#        175935
#        192608
#        204360
#        237829
#        258738
#        267653
#
# Disc length: 3837 seconds
#
# Revision: 0
# Processed by: cddbd v1.5.2PL0 Copyright (c) Steve Scherf et al.
# Submitted via: ExactAudioCopy v0.95b3
#
DISCID=ea0efb0f
DTITLE=Various Artist - Jesienni panowie
DYEAR=1900
DGENRE=Blues
TTITLE0=Chet Baker - Mo'Better Blues
TTITLE1=Chet Baker - My Funny Valentine
TTITLE2=George Michael - The Long And Winding Road
TTITLE3=Queen - Love of my life
TTITLE4=George Michael and Lisa Stansfield - I am calling you
TTITLE5=Kenny Rankin - While My Guitar Gently Weeps
TTITLE6=Sting - Come down in time
TTITLE7=Michael Blube - Kissing A Fool
TTITLE8=Harry Connick Jr. - Cry Me A River
TTITLE9=Ray Charles - Georgia on my mind
TTITLE10=Matt Monroe - From Russia With Love
TTITLE11=Michael Franks - Everytime She Whispers
TTITLE12=Richard Bona - Eyala
TTITLE13=Sting - Lullaby for an anxious child
TTITLE14=Bobby McFerrin - Round Midnight
EXTD=
EXTT0=
EXTT1=
EXTT2=
EXTT3=
EXTT4=
EXTT5=
EXTT6=
EXTT7=
EXTT8=
EXTT9=
EXTT10=
EXTT11=
EXTT12=
EXTT13=
EXTT14=
PLAYORDER=
